<svg xmlns="http://www.w3.org/2000/svg" width="0" height="0" style="position:absolute">
    <defs>
        <svg viewBox="0 0 17.55 16.88" id="cross" xmlns="http://www.w3.org/2000/svg">
            <path d="M0 15.79l1.04 1.09.54-.52 7.19-6.88 7.2 6.88.54.52 1.04-1.09-.54-.51-7.15-6.84 7.15-6.84.54-.52L16.51 0l-.54.52-7.2 6.88L1.58.52 1.04 0 0 1.08l.54.52 7.15 6.84-7.15 6.84-.54.51z"/>
        </svg>
        <svg viewBox="0 0 21.3 10.65" id="chevron" xmlns="http://www.w3.org/2000/svg">
            <path d="M10.73 10.64L0 1.52 1.3 0l9.43 8L20 .11l1.3 1.52z"/>
        </svg>
        <svg viewBox="0 0 32 32" id="dots" xmlns="http://www.w3.org/2000/svg">
            <circle cx="16" cy="16" r="3"/>
            <circle cx="16" cy="28.1" r="3"/>
            <circle cx="16" cy="3.9" r="3"/>
        </svg>
        <svg viewBox="0 0 32 32" id="navigational_chevron_up" xmlns="http://www.w3.org/2000/svg">
            <path class="hzst0" d="M16.6 9.2c-.4-.3-.9-.3-1.2 0l-15 12 1.2 1.6L16 11.3l14.4 11.5 1.2-1.6-15-12z"/>
        </svg>
        <svg viewBox="0 0 32 32" id="navigational_chevron_down" xmlns="http://www.w3.org/2000/svg">
            <path class="hwst0" d="M30.4 9.2L16 20.7 1.6 9.2.4 10.8l15 12c.2.1.4.2.6.2s.4-.1.6-.2l15-12-1.2-1.6z"/>
        </svg>
        <svg viewBox="0 0 32 32" id="navigational_chevron_left" xmlns="http://www.w3.org/2000/svg">
            <path class="iast0" d="M22.8 1.6L21.2.4l-12 15c-.3.4-.3.9 0 1.2l12 15 1.6-1.2L11.3 16 22.8 1.6z"/>
        </svg>
        <svg viewBox="0 0 32 32" id="navigational_chevron_right" xmlns="http://www.w3.org/2000/svg">
            <path class="ibst0" d="M22.8 15.4l-12-15-1.6 1.2L20.7 16 9.2 30.4l1.6 1.2 12-15c.3-.3.3-.9 0-1.2z"/>
        </svg>
        <svg viewBox="0 0 32 32" id="circle-exclamation" xmlns="http://www.w3.org/2000/svg">
            <circle class="fjst0" cx="16" cy="24" r="1.5"/>
            <path class="fjst0" d="M15 8h2v11h-2z"/>
            <path class="fjst0" d="M16 0C7.2 0 0 7.2 0 16s7.2 16 16 16 16-7.2 16-16S24.8 0 16 0zm0 30C8.3 30 2 23.7 2 16S8.3 2 16 2s14 6.3 14 14-6.3 14-14 14z"/>
        </svg>
    </defs>
</svg>